<svg width="824" height="824" viewBox="0 0 824 824" fill="none" xmlns="http://www.w3.org/2000/svg">
<g clip-path="url(#clip0_2320_9)">
<rect width="824" height="824" rx="187" fill="url(#paint0_radial_2320_9)"/>
<path d="M210.365 329.455C200.774 275.065 237.091 223.2 291.481 213.609L610.558 157.347C611.646 157.155 612.684 157.882 612.875 158.97L614.265 166.848C623.855 221.238 587.538 273.103 533.149 282.694L214.071 338.956C212.983 339.147 211.946 338.421 211.754 337.333L210.365 329.455Z" fill="url(#paint1_linear_2320_9)"/>
<path d="M210.365 493.455C200.774 439.065 237.091 387.2 291.481 377.609L610.558 321.347C611.646 321.155 612.684 321.882 612.875 322.97L614.265 330.848C623.855 385.238 587.538 437.103 533.149 446.694L214.071 502.956C212.983 503.147 211.946 502.421 211.754 501.333L210.365 493.455Z" fill="url(#paint2_linear_2320_9)"/>
<path d="M210.365 657.455C200.774 603.065 237.091 551.2 291.481 541.609L610.558 485.347C611.646 485.155 612.684 485.882 612.875 486.97L614.265 494.848C623.855 549.238 587.538 601.103 533.149 610.694L214.071 666.956C212.983 667.147 211.946 666.421 211.754 665.333L210.365 657.455Z" fill="url(#paint3_linear_2320_9)"/>
</g>
<defs>
<radialGradient id="paint0_radial_2320_9" cx="0" cy="0" r="1" gradientUnits="userSpaceOnUse" gradientTransform="translate(412 412) rotate(90) scale(412)">
<stop stop-color="#0F76C9"/>
<stop offset="0.0001" stop-color="#008EFF"/>
<stop offset="1" stop-color="#0384EC"/>
</radialGradient>
<linearGradient id="paint1_linear_2320_9" x1="402.764" y1="193.987" x2="421.865" y2="302.316" gradientUnits="userSpaceOnUse">
<stop stop-color="white"/>
<stop offset="1" stop-color="white" stop-opacity="0.4"/>
</linearGradient>
<linearGradient id="paint2_linear_2320_9" x1="402.764" y1="357.987" x2="421.865" y2="466.316" gradientUnits="userSpaceOnUse">
<stop stop-color="white"/>
<stop offset="1" stop-color="white" stop-opacity="0.4"/>
</linearGradient>
<linearGradient id="paint3_linear_2320_9" x1="402.764" y1="521.987" x2="421.865" y2="630.316" gradientUnits="userSpaceOnUse">
<stop stop-color="white"/>
<stop offset="1" stop-color="white" stop-opacity="0.4"/>
</linearGradient>
<clipPath id="clip0_2320_9">
<rect width="824" height="824" fill="white"/>
</clipPath>
</defs>
</svg>
